<?xml version="1.0" encoding="UTF-8"?>
<svg width="375px" height="532px" viewBox="0 0 375 532" version="1.1" xmlns="http://www.w3.org/2000/svg" xmlns:xlink="http://www.w3.org/1999/xlink">
    <!-- Generator: Sketch 52.6 (67491) - http://www.bohemiancoding.com/sketch -->
    <title>undraw_Specs_h9jt</title>
    <desc>Created with Sketch.</desc>
    <defs>
        <linearGradient x1="50.0023444%" y1="100%" x2="50.0023444%" y2="0%" id="linearGradient-1">
            <stop stop-color="#808080" stop-opacity="0.25" offset="0%"></stop>
            <stop stop-color="#808080" stop-opacity="0.12" offset="54%"></stop>
            <stop stop-color="#808080" stop-opacity="0.1" offset="100%"></stop>
        </linearGradient>
        <linearGradient x1="50.0013729%" y1="100%" x2="50.0013729%" y2="0%" id="linearGradient-2">
            <stop stop-color="#808080" stop-opacity="0.25" offset="0%"></stop>
            <stop stop-color="#808080" stop-opacity="0.12" offset="54%"></stop>
            <stop stop-color="#808080" stop-opacity="0.1" offset="100%"></stop>
        </linearGradient>
        <linearGradient x1="50.0000023%" y1="99.9748282%" x2="50.0000023%" y2="0.0362986911%" id="linearGradient-3">
            <stop stop-color="#808080" stop-opacity="0.25" offset="0%"></stop>
            <stop stop-color="#808080" stop-opacity="0.12" offset="54%"></stop>
            <stop stop-color="#808080" stop-opacity="0.1" offset="100%"></stop>
        </linearGradient>
        <linearGradient x1="50%" y1="99.965035%" x2="50%" y2="0%" id="linearGradient-4">
            <stop stop-color="#808080" stop-opacity="0.25" offset="0%"></stop>
            <stop stop-color="#808080" stop-opacity="0.12" offset="54%"></stop>
            <stop stop-color="#808080" stop-opacity="0.1" offset="100%"></stop>
        </linearGradient>
        <linearGradient x1="-1.74833372%" y1="10.4598465%" x2="101.748334%" y2="89.5341108%" id="linearGradient-5">
            <stop stop-color="#808080" stop-opacity="0.25" offset="0%"></stop>
            <stop stop-color="#808080" stop-opacity="0.12" offset="54%"></stop>
            <stop stop-color="#808080" stop-opacity="0.1" offset="100%"></stop>
        </linearGradient>
        <linearGradient x1="0%" y1="49.9839641%" x2="100%" y2="49.9839641%" id="linearGradient-6">
            <stop stop-color="#808080" stop-opacity="0.25" offset="0%"></stop>
            <stop stop-color="#808080" stop-opacity="0.12" offset="54%"></stop>
            <stop stop-color="#808080" stop-opacity="0.1" offset="100%"></stop>
        </linearGradient>
        <linearGradient x1="50%" y1="100.004921%" x2="50%" y2="0.00492125984%" id="linearGradient-7">
            <stop stop-color="#808080" stop-opacity="0.25" offset="0%"></stop>
            <stop stop-color="#808080" stop-opacity="0.12" offset="54%"></stop>
            <stop stop-color="#808080" stop-opacity="0.1" offset="100%"></stop>
        </linearGradient>
        <linearGradient x1="50%" y1="99.9950787%" x2="50%" y2="-0.00492125984%" id="linearGradient-8">
            <stop stop-color="#808080" stop-opacity="0.25" offset="0%"></stop>
            <stop stop-color="#808080" stop-opacity="0.12" offset="54%"></stop>
            <stop stop-color="#808080" stop-opacity="0.1" offset="100%"></stop>
        </linearGradient>
        <linearGradient x1="50%" y1="100%" x2="50%" y2="-2.79741235e-14%" id="linearGradient-9">
            <stop stop-color="#808080" stop-opacity="0.25" offset="0%"></stop>
            <stop stop-color="#808080" stop-opacity="0.12" offset="54%"></stop>
            <stop stop-color="#808080" stop-opacity="0.1" offset="100%"></stop>
        </linearGradient>
        <linearGradient x1="50%" y1="100%" x2="50%" y2="0%" id="linearGradient-10">
            <stop stop-color="#808080" stop-opacity="0.25" offset="0%"></stop>
            <stop stop-color="#808080" stop-opacity="0.12" offset="54%"></stop>
            <stop stop-color="#808080" stop-opacity="0.1" offset="100%"></stop>
        </linearGradient>
        <linearGradient x1="50.0117152%" y1="100.011508%" x2="50.0117152%" y2="0.00562412961%" id="linearGradient-11">
            <stop stop-color="#808080" stop-opacity="0.25" offset="0%"></stop>
            <stop stop-color="#808080" stop-opacity="0.12" offset="54%"></stop>
            <stop stop-color="#808080" stop-opacity="0.1" offset="100%"></stop>
        </linearGradient>
    </defs>
    <g id="Page-1" stroke="none" stroke-width="1" fill="none" fill-rule="evenodd" opacity="0.0694986979">
        <g id="Novo-apontamento" transform="translate(0.000000, -264.000000)">
            <g id="undraw_Specs_h9jt" transform="translate(-145.000000, 263.000000)">
                <path d="M173.322562,28.8058121 L296.86294,28.7887791 C304.285647,28.7879385 310.303621,34.8045501 310.304462,42.227257 C310.304462,42.2282715 310.304462,42.2292859 310.304462,42.2303003 L310.27676,233.195424 C310.27592,240.616943 304.259801,246.633062 296.838282,246.633903 L173.297904,246.653979 C165.875197,246.65482 159.857223,240.638208 159.856382,233.215501 C159.856382,233.214487 159.856382,233.213472 159.856382,233.212458 L159.884084,42.2473343 C159.884924,34.8258158 165.901043,28.8096961 173.322562,28.8088557 Z" id="Rectangle" fill="url(#linearGradient-1)" transform="translate(235.080422, 137.721379) rotate(-12.750000) translate(-235.080422, -137.721379) "></path>
                <path d="M174.505418,31.5993513 L294.30768,31.5827417 C301.730387,31.5819011 307.748362,37.5985126 307.749202,45.0212196 C307.749202,45.022234 307.749202,45.0232484 307.749202,45.0242628 L307.722036,231.254543 C307.721196,238.676062 301.705077,244.692182 294.283558,244.693022 L174.481296,244.712675 C167.058589,244.713516 161.040615,238.696904 161.039775,231.274197 C161.039774,231.273183 161.039774,231.272169 161.039775,231.271154 L161.06694,45.0408735 C161.06778,37.619355 167.0839,31.6032353 174.505418,31.6023949 Z" id="Rectangle" fill="#651FFF" transform="translate(234.394488, 138.147708) rotate(-12.750000) translate(-234.394488, -138.147708) "></path>
                <polygon id="Rectangle" fill="url(#linearGradient-2)" transform="translate(199.139979, 345.278120) rotate(-20.670000) translate(-199.139979, -345.278120) " points="70.7294356 189.360258 327.604687 189.315629 327.550522 501.195982 70.6752711 501.240611"></polygon>
                <polygon id="Rectangle" fill="#FFFFFF" transform="translate(198.933238, 344.736126) rotate(-20.670000) translate(-198.933238, -344.736126) " points="72.8568394 191.739091 325.062786 191.695273 325.009636 497.733161 72.8036895 497.776979"></polygon>
                <polygon id="Rectangle" fill="#651FFF" transform="translate(206.889740, 425.385485) rotate(-20.670000) translate(-206.889740, -425.385485) " points="150.258953 423.059749 263.521338 423.040071 263.520526 427.71122 150.258142 427.730898"></polygon>
                <polygon id="Rectangle" fill="#651FFF" transform="translate(250.642990, 438.832719) rotate(-20.670000) translate(-250.642990, -438.832719) " points="157.818037 436.513271 343.468755 436.481017 343.467943 441.152166 157.817226 441.184421"></polygon>
                <polygon id="Rectangle" fill="#651FFF" transform="translate(305.203646, 388.278536) rotate(-20.670000) translate(-305.203646, -388.278536) " points="281.268574 385.94712 329.13953 385.938803 329.138718 390.609952 281.267763 390.618269"></polygon>
                <polygon id="Rectangle" fill="#651FFF" transform="translate(181.240346, 450.052838) rotate(-20.670000) translate(-181.240346, -450.052838) " points="157.305274 447.721421 205.176229 447.713104 205.175418 452.384254 157.304462 452.392571"></polygon>
                <polygon id="Rectangle" fill="#651FFF" transform="translate(245.700890, 425.721904) rotate(-20.670000) translate(-245.700890, -425.721904) " points="221.765818 423.390488 269.636773 423.382171 269.635962 428.05332 221.765006 428.061637"></polygon>
                <polygon id="Rectangle" fill="#651FFF" transform="translate(310.154835, 401.393462) rotate(-20.670000) translate(-310.154835, -401.393462) " points="286.219763 399.062046 334.090718 399.053729 334.089907 403.724878 286.218952 403.733195"></polygon>
                <polygon id="Rectangle" fill="#651FFF" transform="translate(179.832498, 294.841452) rotate(-20.670000) translate(-179.832498, -294.841452) " points="109.779754 269.155247 249.894169 269.130904 249.885243 320.527657 109.770828 320.552001"></polygon>
                <path d="M417.65265,436.422136 C417.818214,435.471069 417.902209,434.507474 417.903708,433.541967 C417.907965,425.802758 412.568315,419.096436 405.053271,417.402488 C397.538227,415.70854 389.859491,419.480419 386.573575,426.479918 C383.28766,433.479416 385.274171,441.832837 391.354326,446.583316 C391.183273,447.533755 391.096921,448.497629 391.096294,449.463485 C391.094577,457.200907 396.434012,463.904413 403.947388,465.597662 C411.460765,467.29091 419.137803,463.520855 422.424687,456.523793 C425.711571,449.526731 423.728862,441.174796 417.65265,436.422136 Z" id="Path" fill="url(#linearGradient-3)"></path>
                <circle id="Oval" fill="#651FFF" cx="408" cy="448" r="15"></circle>
                <circle id="Oval" fill="url(#linearGradient-4)" cx="429" cy="483" r="10"></circle>
                <circle id="Oval" fill="#651FFF" cx="429" cy="484" r="9"></circle>
                <circle id="Oval" fill="#651FFF" cx="402" cy="434" r="15"></circle>
                <g id="Group" opacity="0.5" transform="translate(466.000000, 1.000000)" fill="#47E6B1">
                    <rect id="Rectangle" x="4.94117647" y="0" width="2.11764706" height="12"></rect>
                    <polygon id="Rectangle" transform="translate(6.000000, 6.000000) rotate(90.000000) translate(-6.000000, -6.000000) " points="4.94117647 -2.38919995e-13 7.05882353 -2.38919995e-13 7.05882353 12 4.94117647 12"></polygon>
                </g>
                <g id="Group" opacity="0.5" transform="translate(278.000000, 507.000000)" fill="#47E6B1">
                    <rect id="Rectangle" x="4.94117647" y="0" width="2.11764706" height="12"></rect>
                    <polygon id="Rectangle" transform="translate(6.000000, 6.000000) rotate(90.000000) translate(-6.000000, -6.000000) " points="4.94117647 2.33479902e-13 7.05882353 2.33479902e-13 7.05882353 12 4.94117647 12"></polygon>
                </g>
                <path d="M503.261455,487.587922 C502.109482,487.087452 501.516249,485.799807 501.883263,484.59648 C501.91084,484.508854 501.928873,484.418495 501.937046,484.32698 C501.975664,483.778101 501.648649,483.269393 501.133985,483.077728 C500.619321,482.886063 500.040181,483.057312 499.711771,483.49827 C499.657884,483.576123 499.612789,483.65973 499.577313,483.747557 C499.063162,484.889848 497.779353,485.468094 496.585629,485.095053 C496.498363,485.066761 496.408125,485.048674 496.316714,485.041154 C495.770324,485.005838 495.265772,485.334693 495.076418,485.849548 C494.887063,486.364402 495.057962,486.942756 495.496521,487.271261 C495.570781,487.32867 495.652128,487.376226 495.738545,487.412748 C496.888241,487.915552 497.480501,489.201087 497.116737,490.404191 C497.082132,490.492207 497.063904,490.58583 497.062954,490.680427 C497.027715,491.228003 497.355857,491.733651 497.869596,491.923417 C498.383336,492.113182 498.960436,491.941912 499.288229,491.5024 C499.339551,491.425347 499.384519,491.344228 499.422687,491.259851 C499.934208,490.11855 501.215782,489.540011 502.407648,489.912354 C502.497217,489.940637 502.589679,489.958717 502.683286,489.966254 C503.229676,490.00157 503.734228,489.672715 503.923582,489.15786 C504.112937,488.643005 503.942038,488.064652 503.503479,487.736147 C503.426944,487.68025 503.346003,487.630678 503.261455,487.587922 Z" id="Path" fill="#4D8AF0" opacity="0.5"></path>
                <circle id="Oval" fill="#F55F44" opacity="0.5" cx="347" cy="40" r="4"></circle>
                <g id="Group" opacity="0.5" transform="translate(475.000000, 0.000000)" fill="url(#linearGradient-5)">
                    <path d="M-24.9265669,56.4445496 L177.050344,56.0184077 C179.503637,56.0132316 181.488274,57.9863414 181.483156,60.4254717 L181.25784,167.796125 C181.25273,170.231378 179.262962,172.209729 176.81357,172.214897 L-25.1633412,172.641039 C-27.616634,172.646215 -29.6012714,170.673105 -29.596153,168.233975 L-29.3708522,60.870343 C-29.3657337,58.4312127 -27.3727976,56.4497108 -24.9195047,56.4445347 L-24.9265669,56.4445496 Z" id="Path" transform="translate(75.943501, 114.329723) rotate(-79.980000) translate(-75.943501, -114.329723) "></path>
                </g>
                <path d="M507.610748,11.5610586 L593.897843,11.5712951 C601.430047,11.571974 607.535935,17.6778622 607.536614,25.2100661 L607.55755,203.01921 C607.558229,210.552374 601.451943,216.65976 593.918779,216.660439 C593.91796,216.660439 593.91714,216.660439 593.916321,216.660439 L507.629226,216.647744 C500.097022,216.647065 493.991134,210.541177 493.990455,203.008973 L493.969519,25.1998293 C493.96884,17.6666653 500.075126,11.5592791 507.60829,11.5586004 C507.609109,11.5586004 507.609929,11.5586004 507.610748,11.5586004 Z" id="Rectangle" fill="#FFFFFF" transform="translate(550.763535, 114.109520) rotate(10.020000) translate(-550.763535, -114.109520) "></path>
                <path d="M595.614981,22.6472867 C594.1742,26.9582898 589.783107,29.5649212 585.296596,28.7724649 L546.588516,21.9565302 C542.120919,21.1428173 538.910681,17.2087318 539.019344,12.6806562 L518.523921,9.06475705 C517.391323,8.86665851 516.226279,9.1272687 515.287009,9.78882598 C514.347738,10.4503833 513.711824,11.4582438 513.520211,12.5890253 L481.066769,195.681807 C480.651452,198.024761 482.216676,200.260688 484.565125,200.67922 L582.483775,217.934037 C583.61745,218.134205 584.784333,217.874576 585.725205,217.212825 C586.666077,216.551074 587.303025,215.542001 587.494553,214.409769 L619.93386,31.2817438 C620.134564,30.1510932 619.87424,28.9873223 619.21072,28.0489598 C618.547199,27.1105973 617.535427,26.4753483 616.400167,26.2843315 L595.614981,22.6472867 Z" id="Path" fill="#E0E0E0"></path>
                <polygon id="Rectangle" fill="#FFFFFF" transform="translate(532.866320, 60.552505) rotate(8.800000) translate(-532.866320, -60.552505) " points="517.348753 47.143936 548.381756 47.1464043 548.383887 73.9610741 517.350884 73.9586058"></polygon>
                <polygon id="Rectangle" fill="#651FFF" opacity="0.3" transform="translate(526.930864, 98.899417) rotate(8.800000) translate(-526.930864, -98.899417) " points="511.413296 85.4908477 542.446299 85.493316 542.448431 112.307986 511.415428 112.305518"></polygon>
                <polygon id="Rectangle" fill="#FFFFFF" transform="translate(521.002377, 137.254465) rotate(8.800000) translate(-521.002377, -137.254465) " points="505.48481 123.845896 536.517813 123.848364 536.519944 150.663034 505.486941 150.660565"></polygon>
                <polygon id="Rectangle" fill="#3AD29F" opacity="0.3" transform="translate(515.066921, 175.608433) rotate(8.800000) translate(-515.066921, -175.608433) " points="499.549353 162.199864 530.582356 162.202332 530.584488 189.017002 499.551485 189.014534"></polygon>
                <g id="Group" opacity="0.5" transform="translate(396.000000, 127.000000)" fill="url(#linearGradient-6)">
                    <polygon id="Rectangle" transform="translate(23.619750, 72.820678) rotate(-89.440000) translate(-23.619750, -72.820678) " points="-48.6584017 50.6133767 95.8961445 50.6171344 95.897901 95.0279795 -48.6566452 95.0242218"></polygon>
                </g>
                <polygon id="Rectangle" fill="#E0E0E0" transform="translate(420.159146, 200.207981) rotate(0.560000) translate(-420.159146, -200.207981) " points="399.250552 129.208109 441.067011 129.208324 441.067741 271.207854 399.251282 271.207639"></polygon>
                <polygon id="Rectangle" fill="#4D8AF0" transform="translate(420.728219, 146.282711) rotate(0.560000) translate(-420.728219, -146.282711) " points="405.948856 131.495575 435.507429 131.495727 435.507581 161.069847 405.949008 161.069695"></polygon>
                <polygon id="Rectangle" fill="#4D8AF0" opacity="0.5" transform="translate(420.372384, 181.990903) rotate(0.560000) translate(-420.372384, -181.990903) " points="405.593022 167.203766 435.151595 167.203918 435.151747 196.778039 405.593174 196.777887"></polygon>
                <polygon id="Rectangle" fill="#4D8AF0" opacity="0.3" transform="translate(420.023602, 217.692038) rotate(0.560000) translate(-420.023602, -217.692038) " points="405.24424 202.904902 434.802813 202.905054 434.802965 232.479174 405.244392 232.479022"></polygon>
                <g id="Group" opacity="0.5" transform="translate(353.000000, 132.000000)" fill="url(#linearGradient-7)">
                    <polygon id="Rectangle" transform="translate(43.566417, 75.811089) rotate(-18.072322) translate(-43.566417, -75.811089) " points="21.4647917 4.19082278 63.8707775 4.74885437 65.6680425 147.431355 23.2620566 146.873323"></polygon>
                </g>
                <polygon id="Rectangle" fill="#F5F5F5" transform="translate(397.059289, 211.237596) rotate(-17.780000) translate(-397.059289, -211.237596) " points="376.160849 140.512644 417.979358 140.506247 417.957728 281.962548 376.13922 281.968945"></polygon>
                <polygon id="Rectangle" fill="#FF5252" transform="translate(380.705988, 160.134157) rotate(-17.780000) translate(-380.705988, -160.134157) " points="365.928238 145.350082 395.48826 145.34556 395.483738 174.918232 365.923717 174.922754"></polygon>
                <polygon id="Rectangle" fill="#FF5252" opacity="0.5" transform="translate(391.614666, 194.137936) rotate(-17.780000) translate(-391.614666, -194.137936) " points="376.836916 179.353861 406.396938 179.349339 406.392416 208.922011 376.832394 208.926533"></polygon>
                <polygon id="Rectangle" fill="#FF5252" opacity="0.3" transform="translate(402.507421, 228.137151) rotate(-17.780000) translate(-402.507421, -228.137151) " points="387.729671 213.353076 417.289693 213.348554 417.285171 242.921226 387.72515 242.925748"></polygon>
                <g id="Group" opacity="0.5" transform="translate(331.000000, 145.000000)" fill="url(#linearGradient-8)">
                    <polygon id="Rectangle" transform="translate(54.747993, 73.828264) rotate(-29.480000) translate(-54.747993, -73.828264) " points="32.3697897 2.16808765 72.7430163 3.51004533 77.1261958 145.488441 36.7529693 144.146483"></polygon>
                </g>
                <polygon id="Rectangle" fill="#F5F5F5" transform="translate(386.205758, 219.192776) rotate(-29.480000) translate(-386.205758, -219.192776) " points="365.310799 148.474877 407.132584 148.465452 407.100717 289.910675 365.278933 289.920099"></polygon>
                <polygon id="Rectangle" fill="#69F0AE" transform="translate(359.821202, 172.472981) rotate(-29.480000) translate(-359.821202, -172.472981) " points="345.043365 157.691134 374.605702 157.684472 374.59904 187.254828 345.036703 187.26149"></polygon>
                <polygon id="Rectangle" fill="#69F0AE" opacity="0.5" transform="translate(377.382090, 203.558384) rotate(-29.480000) translate(-377.382090, -203.558384) " points="362.604253 188.776537 392.16659 188.769875 392.159928 218.340231 362.597591 218.346893"></polygon>
                <polygon id="Rectangle" fill="#69F0AE" opacity="0.3" transform="translate(394.946560, 234.644700) rotate(-29.480000) translate(-394.946560, -234.644700) " points="380.168722 219.862853 409.73106 219.856191 409.724398 249.426547 380.16206 249.433209"></polygon>
                <g id="Group" opacity="0.5" transform="translate(318.000000, 156.000000)" fill="url(#linearGradient-9)">
                    <polygon id="Rectangle" transform="translate(61.631995, 71.050401) rotate(-36.680000) translate(-61.631995, -71.050401) " points="40.4285094 -0.382983718 83.9264729 -0.719574913 82.8354814 142.483786 39.3375179 142.820377"></polygon>
                </g>
                <polygon id="Rectangle" fill="#FFFFFF" transform="translate(379.860610, 227.415764) rotate(-36.680000) translate(-379.860610, -227.415764) " points="358.966274 156.702686 400.790581 156.692147 400.754946 298.128842 358.930639 298.139381"></polygon>
                <polygon id="Rectangle" fill="#651FFF" transform="translate(347.815036, 184.373722) rotate(-36.680000) translate(-347.815036, -184.373722) " points="333.036701 169.59316 362.600821 169.58571 362.593371 199.154284 333.029251 199.161733"></polygon>
                <polygon id="Rectangle" fill="#651FFF" opacity="0.5" transform="translate(369.143069, 213.019757) rotate(-36.680000) translate(-369.143069, -213.019757) " points="354.364734 198.239196 383.928854 198.231746 383.921405 227.800319 354.357284 227.807769"></polygon>
                <polygon id="Rectangle" fill="#651FFF" opacity="0.3" transform="translate(390.459837, 241.653077) rotate(-36.680000) translate(-390.459837, -241.653077) " points="375.681502 226.872515 405.245622 226.865065 405.238172 256.433639 375.674052 256.441089"></polygon>
                <circle id="Oval" fill="url(#linearGradient-10)" cx="490" cy="358" r="74"></circle>
                <circle id="Oval" fill="#F5F5F5" cx="490.5" cy="357.5" r="70.5"></circle>
                <g id="Group" opacity="0.5" transform="translate(432.000000, 313.000000)" fill="url(#linearGradient-11)">
                    <path d="M60.8152381,0.331984127 C37.6481202,-0.458263227 17.8022603,16.7480309 15.3382313,39.7603968 L2.60353741,39.7603968 C1.18127269,39.7603968 0.0282993197,40.9115225 0.0282993197,42.3315079 L0.0282993197,46.5696032 C0.0282993197,47.9895886 1.18127269,49.1407143 2.60353741,49.1407143 L15.3382313,49.1407143 C17.849473,72.5848788 38.3695385,89.9210504 61.9431704,88.5144298 C85.5168023,87.1078092 103.822668,67.4549239 103.519244,43.8790205 C103.21582,20.3031172 84.4102127,1.12633034 60.8081633,0.324920635 L60.8152381,0.331984127 Z" id="Path"></path>
                </g>
                <path d="M491.961281,316.042395 C470.256585,315.303356 451.662609,331.469068 449.342625,353.095306 L437.052988,353.095306 C435.919161,353.095306 435.000012,354.015871 435.000012,355.151445 L435.000012,359.864316 C434.998137,360.410861 435.213604,360.935665 435.598815,361.322796 C435.984026,361.709926 436.507281,361.927525 437.052988,361.927521 L449.342625,361.927521 C451.709976,383.967323 470.949461,400.25554 493.042347,398.923863 C515.135234,397.592186 532.285365,379.110537 531.996402,356.945458 C531.707439,334.780379 514.081352,316.753502 491.961281,316 L491.961281,316.042395 Z" id="Path" fill="#FFFFFF"></path>
                <ellipse id="Oval" fill="#795548" cx="490.5" cy="358" rx="29.5" ry="29"></ellipse>
                <path d="M505,343 C505,343 513.470437,355.936615 511.050312,366 C511.050312,366 520.738014,350.183077 505,343 Z" id="Path" fill="#FFFFFF" opacity="0.2"></path>
                <circle id="Oval" fill="#FFFFFF" opacity="0.2" cx="508.5" cy="373.5" r="2.5"></circle>
            </g>
        </g>
    </g>
</svg>